PathFileType	4	(X/Y/Z)	s09c0102.trc
DataRate	CameraRate	NumFrames	NumMarkers	Units	OrigDataRate	OrigDataStartFrame	OrigNumFrames
200	200	4	50	mm	200	750	2000
Frame#	Time	racr			lacr			c7			jug			rlel			rdr			llel			ldr			s2			lic			ric			lasi			rasi			rpsi			lpsi			rgt			lgt			rth1			rth2			rth3			rth4			rlfc			rmfc			rsh1			rsh2			rsh3			rsh4			rlmal			rmmal			rcal			rtoe			rmt5			lth1			lth2			lth4			lth3			llfc			lmfc			llmal			lmmal			lcal			lmt5			lsh1			lsh2			lsh3			lsh4			ltoe			SBIKE			LBIKE			RBIKE			
		X1	Y1	Z1	X2	Y2	Z2	X3	Y3	Z3	X4	Y4	Z4	X5	Y5	Z5	X6	Y6	Z6	X7	Y7	Z7	X8	Y8	Z8	X9	Y9	Z9	X10	Y10	Z10	X11	Y11	Z11	X12	Y12	Z12	X13	Y13	Z13	X14	Y14	Z14	X15	Y15	Z15	X16	Y16	Z16	X17	Y17	Z17	X18	Y18	Z18	X19	Y19	Z19	X20	Y20	Z20	X21	Y21	Z21	X22	Y22	Z22	X23	Y23	Z23	X24	Y24	Z24	X25	Y25	Z25	X26	Y26	Z26	X27	Y27	Z27	X28	Y28	Z28	X29	Y29	Z29	X30	Y30	Z30	X31	Y31	Z31	X32	Y32	Z32	X33	Y33	Z33	X34	Y34	Z34	X35	Y35	Z35	X36	Y36	Z36	X37	Y37	Z37	X38	Y38	Z38	X39	Y39	Z39	X40	Y40	Z40	X41	Y41	Z41	X42	Y42	Z42	X43	Y43	Z43	X44	Y44	Z44	X45	Y45	Z45	X46	Y46	Z46	X47	Y47	Z47	X48	Y48	Z48	X49	Y49	Z49	X50	Y50	Z50	
750	3.7500	505.980335	1256.223539	-84.774012	576.707532	1193.651223	-389.089359	525.107363	1271.043597	-234.263382	483.446512	1141.113452	-228.867022	496.136051	1024.013206	19.772970	696.982451	879.227149	-39.834602	492.505631	1000.826370	-571.861087	684.199423	885.131445	-461.740448	26.702515	1134.256226	-294.962777	170.172148	1108.414786	-433.211001	154.246372	1149.051025	-133.101449	208.548097	1053.056507	-399.010238	196.457618	1092.231318	-145.481118	52.112169	1172.935712	-237.420514	61.095662	1165.235580	-345.496483	139.373914	1020.082083	-82.789010	130.774477	975.064862	-452.558628	249.402439	928.086875	-88.155410	326.997278	887.589127	-95.841999	370.309163	810.305640	-96.907922	346.718248	906.931031	-120.813298	411.189415	712.569185	-121.186374	384.311785	691.077582	-214.776420	327.940345	655.440878	-84.837262	276.448003	582.974570	-95.241001	196.169954	546.795725	-90.134461	292.615076	565.731104	-127.169414	117.042866	483.644987	-85.535923	124.625234	487.664470	-162.439633	35.234476	502.472137	-123.115951	221.572988	314.871050	-127.083277	151.768892	359.487082	-62.189998	231.826999	879.248022	-437.433946	307.392181	842.160465	-424.744034	332.195908	868.972553	-414.123003	356.802541	767.427155	-413.429354	414.439922	685.376683	-386.968687	420.821729	674.168504	-290.395755	328.632358	323.998927	-407.766724	337.327885	335.871200	-329.860529	265.840322	266.785466	-370.734627	438.693272	274.185163	-435.038865	389.648201	587.026542	-412.820713	391.327834	500.817744	-404.612539	349.402419	422.740215	-408.013083	413.972532	497.074092	-371.456841	521.497551	318.019362	-366.350245	-65.081796	852.092777	-243.030302	21.146982	83.475880	-442.248124	21.101616	83.998961	-44.162379	
751	3.7550	503.612574	1257.763997	-82.057359	579.423029	1194.459824	-385.259159	524.930032	1272.131891	-231.674156	483.270696	1142.087731	-226.517690	495.635502	1024.699876	20.054007	696.370070	879.448817	-39.630836	498.892714	1005.644254	-574.007155	685.810376	885.393402	-461.922365	27.802627	1135.207189	-297.397031	172.091890	1107.487200	-435.170985	154.379235	1151.134234	-135.035769	209.942943	1052.143785	-400.147093	196.599590	1094.208332	-147.053669	52.688282	1173.769535	-240.848040	62.875012	1165.009499	-348.968142	140.080241	1023.487853	-84.578749	132.439741	973.346343	-453.462159	251.459674	932.359401	-89.199482	329.725309	892.878498	-97.424894	373.727107	816.085003	-97.682731	348.773708	912.388387	-122.088886	415.638895	718.439697	-122.099402	391.241385	697.576454	-217.840432	332.136983	662.010509	-85.559458	279.873451	589.949456	-95.733255	199.278120	554.601932	-90.496313	296.090590	572.502188	-127.365532	119.987263	491.850909	-85.675674	126.621028	495.792074	-162.464884	37.894387	510.912561	-123.342731	224.083151	323.196771	-127.214518	154.243537	367.861703	-62.435643	231.651248	875.861521	-437.895284	306.253327	837.106740	-424.481653	331.364151	863.384637	-414.016062	353.218528	760.787520	-411.658883	409.355360	678.219390	-386.134447	414.144110	667.086530	-289.799765	326.150260	316.768485	-407.798268	335.073692	328.149622	-329.765969	263.576504	259.870964	-370.785555	436.566917	265.945131	-434.880135	384.889209	579.837205	-412.465095	387.620310	493.656296	-404.273836	346.588855	415.114137	-407.778334	410.090508	490.140382	-370.930601	519.731249	308.977228	-366.135662	-65.086727	852.102955	-243.067330	21.164489	83.470196	-442.263445	21.112882	83.995762	-44.170734	
752	3.7600	501.417038	1258.741078	-79.949750	581.980330	1195.181484	-381.561565	524.740269	1273.226744	-228.981135	483.404051	1143.165011	-224.479761	495.245905	1025.318350	20.564357	695.951845	879.892402	-39.430779	505.532967	1010.568007	-575.867974	687.441753	884.626468	-462.892599	28.538488	1136.779866	-298.750114	173.796724	1106.150494	-436.923067	154.420726	1152.803666	-136.950030	211.441399	1051.182041	-401.020776	196.907836	1096.148117	-148.266499	53.243751	1174.468019	-244.018015	64.324679	1164.896558	-352.269454	141.000843	1026.782593	-86.222704	134.122033	971.551248	-454.144843	253.531786	936.524602	-90.196682	332.425187	898.558501	-98.555571	377.348358	822.123395	-98.519105	350.966582	917.679223	-123.701984	420.274926	724.436263	-122.884499	395.783745	702.356960	-218.892318	336.388744	668.795194	-86.448040	283.766727	596.973985	-96.125735	202.820596	562.310210	-90.842351	299.661486	579.317474	-127.764903	123.086271	500.116886	-85.832166	129.092095	503.821186	-162.584945	41.375359	519.209166	-122.966899	227.001084	331.524211	-127.340733	157.132995	376.208180	-62.669382	231.415261	872.443914	-438.316394	304.982187	832.018082	-424.259796	330.637152	857.750633	-413.493122	350.028943	754.443654	-410.848687	404.088808	671.263031	-385.506118	406.657632	660.072962	-289.838707	323.416113	309.620404	-407.668757	332.710443	320.910004	-329.718155	261.039624	253.272723	-370.690482	434.027233	257.728715	-434.723503	380.104963	572.814091	-412.186990	383.636116	486.758241	-403.906949	343.425897	407.768234	-407.607242	405.988098	483.490608	-370.479039	517.591894	299.995893	-365.976987	-65.069890	852.097552	-243.113140	21.177929	83.457552	-442.256662	21.114541	84.006315	-44.170224	
753	3.7650	499.247356	1259.829484	-77.784031	584.540320	1196.119457	-377.742339	524.522122	1274.387994	-226.472329	483.829193	1144.325265	-222.638281	494.969769	1025.860498	21.358416	695.788129	880.063274	-39.473493	512.393365	1015.642374	-577.439579	689.434272	886.003666	-462.174472	29.496434	1136.924330	-301.653474	175.402492	1104.858223	-438.434461	154.641291	1154.290845	-138.626165	212.711339	1050.416261	-402.112887	197.126276	1098.042405	-149.282561	53.749491	1175.113794	-246.936526	65.586355	1164.706177	-354.996052	142.003270	1029.875605	-87.780154	135.867691	969.756083	-454.682385	255.746265	940.815500	-91.211044	335.275490	903.812167	-99.719701	381.241808	828.014433	-99.901315	353.083811	923.467719	-124.667107	425.204848	730.459563	-123.489867	400.543222	708.385413	-219.335715	340.959747	675.311158	-87.238808	287.805601	604.078582	-96.642069	206.607532	569.913387	-91.217493	303.216181	586.272869	-128.386637	126.446820	508.308304	-85.930939	132.408812	511.794739	-162.878232	44.361549	527.668861	-123.246395	230.327798	339.763645	-127.433732	160.539314	384.501649	-62.887788	231.159724	869.034314	-438.701621	303.725458	826.988869	-423.949728	329.696513	852.130271	-413.015340	347.124118	748.621602	-410.415408	398.651748	664.641262	-385.089331	399.277852	653.455141	-289.730160	320.248981	303.027983	-407.600709	329.650653	313.741820	-329.629418	258.061729	247.056851	-370.745791	431.148237	249.815395	-434.516491	375.102580	566.169514	-411.880543	379.456165	480.050497	-403.553245	340.007527	400.746296	-407.426196	401.583890	477.049315	-370.049682	515.143147	291.070796	-365.686740	-65.043358	852.110054	-243.118083	21.183233	83.468082	-442.255977	21.109034	84.023343	-44.174357	
